#!OML:ASF H:\GeneralSubjects\Female5\Project 1\Capture day 1\Session 1\Female5.ASF
:FULLY-SPECIFIED
:DEGREES
237
root 8.89227 18.259 4.36766 -194.756 84.5739 -205.767
lowerback 10.6352 -1.12232 -4.91922
upperback -8.68866 -2.13703 0.807663
thorax -15.5508 -0.317219 4.16664
lowerneck -15.2325 -1.86788 1.14322
upperneck 38.9512 -0.0858159 -3.71418
head 16.5797 0.17662 -1.70077
rclavicle 9.38015e-015 -4.17448e-015
rhumerus -65.3355 11.055 -58.6221
rradius 31.3591
rwrist -11.8058
rhand -20.8344 -16.6773
rfingers 7.12502
rthumb 5.53426 -46.585
lclavicle 9.38015e-015 -4.17448e-015
lhumerus -44.137 -9.5886 83.0816
lradius 59.9695
lwrist -6.0207
lhand -31.6987 31.3123
lfingers 7.12502
lthumb -4.95783 61.2343
rfemur -19.0937 25.2632 16.0876
rtibia -3.51308
rfoot 332.081 -43.2396
rtoes 20.9523
lfemur -1.762 6.23248 -28.8434
ltibia 29.4959
lfoot -43.9226 -9.49856
ltoes -54.375
238
root 9.1826 18.0257 4.4241 -196.425 83.8714 -207.215
lowerback 10.4079 -1.14549 -5.04048
upperback -8.86894 -2.19023 0.652087
thorax -15.6225 -0.32909 4.06473
lowerneck -15.2793 -1.97564 0.434784
upperneck 38.5329 -0.209015 -3.3636
head 16.3736 0.0543805 -1.43415
rclavicle -8.70925e-015 -7.7526e-015
rhumerus -65.6983 11.4082 -58.0839
rradius 31.127
rwrist -11.8406
rhand -20.5319 -17.1117
rfingers 7.12502
rthumb 5.82632 -47.0116
lclavicle -8.70925e-015 -7.7526e-015
lhumerus -44.7532 -9.16876 83.3554
lradius 59.3339
lwrist -6.11267
lhand -30.7163 32.5268
lfingers 7.12502
lthumb -4.0092 62.4688
rfemur -16.8991 27.099 16.1743
rtibia -4.52118
rfoot 326.485 -42.2596
rtoes 25.7894
lfemur -2.0332 6.62993 -28.6236
ltibia 33.2165
lfoot -44.164 -10.8899
ltoes -54.4311
239
root 9.48221 17.7736 4.48046 -197.61 83.1323 -208.032
lowerback 10.2239 -1.15717 -5.1433
upperback -8.96848 -2.22434 0.523666
thorax -15.6247 -0.337928 3.97876
lowerneck -15.2812 -2.01636 0.144079
upperneck 38.0103 -0.144743 -3.58828
head 16.108 -0.00839402 -1.46058
rclavicle 7.45443e-016 -2.5842e-015
rhumerus -65.9488 11.7108 -57.3341
rradius 31.0322
rwrist -11.5547
rhand -20.6864 -17.631
rfingers 7.12502
rthumb 5.67717 -47.535
lclavicle 7.45443e-016 -2.5842e-015
lhumerus -45.3535 -8.5933 83.4999
lradius 58.549
lwrist -6.10939
lhand -31.056 32.3664
lfingers 7.12502
lthumb -4.33717 62.302
rfemur -15.4318 28.8313 16.2393
rtibia -3.47941
rfoot 326.008 -45.1611
rtoes 24.3309
lfemur -2.19906 6.95363 -28.3291
ltibia 37.3532
lfoot -43.335 -14.6209
ltoes -52.5198
240
root 9.79498 17.5025 4.53729 -200.831 82.2734 -210.657
lowerback 10.1108 -1.17678 -5.50075
upperback -8.92849 -2.33404 0.292127
thorax -15.4918 -0.372383 3.9365
lowerneck -15.2929 -1.94354 0.24418
upperneck 37.321 0.0927537 -4.20317
head 15.7685 -0.000414451 -1.6908
rclavicle 8.59744e-015 1.82882e-014
rhumerus -65.8819 12.0587 -56.5711
rradius 30.929
rwrist -11.3736
rhand -20.7553 -17.9531
rfingers 7.12502
rthumb 5.61057 -47.8588
lclavicle 8.59744e-015 1.82882e-014
lhumerus -45.8367 -7.81677 83.3546
lradius 57.5562
lwrist -6.26693
lhand -31.4625 31.8554
lfingers 7.12502
lthumb -4.72978 61.7826
rfemur -13.22 21.2423 18.3728
rtibia -1.75839
rfoot 340.289 -44.0486
rtoes 16.1762
lfemur -2.12201 7.4507 -28.1991
ltibia 41.6959
lfoot -42.192 -17.5693
ltoes -50.6218
241
root 10.1124 17.2078 4.60062 -204.212 81.4878 -213.328
lowerback 10.0835 -1.18117 -5.87262
upperback -8.85902 -2.43869 -0.00402435
thorax -15.3819 -0.408073 3.83116
lowerneck -14.8941 -1.94931 0.481002
upperneck 36.2261 0.154064 -4.92314
head 15.1353 -0.0642559 -1.99872
rclavicle 3.27995e-015 4.96962e-015
rhumerus -65.5795 12.4941 -55.9325
rradius 30.8298
rwrist -11.3285
rhand -20.9194 -18.097
rfingers 7.12502
rthumb 5.45221 -48.0069
lclavicle 3.27995e-015 4.96962e-015
lhumerus -46.4325 -6.98439 82.8887
lradius 56.6743
lwrist -6.55805
lhand -31.2612 31.5256
lfingers 7.12502
lthumb -4.53532 61.457
rfemur -11.6472 13.9931 19.7003
rtibia 0.811624
rfoot 339.782 -27.1481
rtoes 41.7578
lfemur -2.15296 8.18567 -27.9128
ltibia 46.5965
lfoot -40.8573 -18.9462
ltoes -49.7313
242
root 10.4149 16.8959 4.67303 -204.314 81.1156 -212.73
lowerback 10.2594 -1.13983 -5.68689
upperback -8.84774 -2.37832 -0.122681
thorax -15.4977 -0.404871 3.58595
lowerneck -14.8092 -1.90244 -0.315555
upperneck 35.5042 0.281851 -4.63049
head 14.7848 -0.0951521 -1.69576
rclavicle -8.00108e-015 -2.54444e-014
rhumerus -64.9944 12.8769 -55.3024
rradius 30.6242
rwrist -11.0853
rhand -21.2516 -18.6456
rfingers 7.12502
rthumb 5.1314 -48.5635
lclavicle -8.00108e-015 -2.54444e-014
lhumerus -47.1388 -6.13881 82.2946
lradius 55.8143
lwrist -6.78631
lhand -31.2595 31.5124
lfingers 7.12502
lthumb -4.53372 61.4439
rfemur -10.5165 9.54308 20.9532
rtibia 3.32026
rfoot 347.356 -23.027
rtoes 24.7757
lfemur -2.68051 9.05451 -26.8212
ltibia 52.2221
lfoot -38.9399 -19.2573
ltoes -48.5553
243
root 10.7072 16.5762 4.74509 -201.748 81.1436 -209.386
lowerback 10.5608 -1.09284 -4.92918
upperback -8.78478 -2.19319 -0.0326748
thorax -15.6467 -0.394276 3.23095
lowerneck -14.5139 -1.75887 -0.825764
upperneck 34.5733 0.569646 -4.68388
head 14.301 -0.0581207 -1.55771
rclavicle -8.54774e-015 1.82882e-014
rhumerus -63.9636 13.1378 -54.669
rradius 30.3028
rwrist -10.3907
rhand -21.6128 -19.6555
rfingers 7.12502
rthumb 4.78266 -49.5815
lclavicle -8.54774e-015 1.82882e-014
lhumerus -47.7145 -4.90243 81.5437
lradius 54.5844
lwrist -7.03148
lhand -31.5733 31.5082
lfingers 7.12502
lthumb -4.83674 61.433
rfemur -9.35188 7.17149 22.6274
rtibia 5.28777
rfoot 350.335 -19.3927
rtoes 5.11889
lfemur -3.65315 9.85472 -25.1678
ltibia 58.4739
lfoot -36.0602 -18.4794
ltoes -45.9942
244
root 11.0033 16.2625 4.80834 -196.43 81.5323 -203.122
lowerback 10.8399 -1.07362 -3.62869
upperback -8.59645 -1.9196 0.243483
thorax -15.6371 -0.399339 2.7563
lowerneck -14.0922 -1.58311 -0.985309
upperneck 33.4506 0.921392 -5.1725
head 13.7202 0.00185633 -1.64436
rclavicle 6.85807e-015 -1.03368e-014
rhumerus -62.5022 13.4244 -54.301
rradius 29.9339
rwrist -9.46009
rhand -22.4076 -20.5768
rfingers 7.12502
rthumb 4.01519 -50.5187
lclavicle 6.85807e-015 -1.03368e-014
lhumerus -48.2556 -3.14013 80.5585
lradius 52.9349
lwrist -7.32311
lhand -31.9445 30.5745
lfingers 7.12502
lthumb -5.19518 60.4908
rfemur -7.87624 5.94857 24.9438
rtibia 6.9591
rfoot 348.003 -15.9183
rtoes -1.15595
lfemur -4.81841 10.7048 -23.103
ltibia 65.0628
lfoot -32.2395 -16.3496
ltoes -41.6805
245
root 11.2944 15.9715 4.85955 -186.342 82.1996 -192.165
lowerback 11.0357 -1.07202 -1.56542
upperback -8.41531 -1.49737 0.67212
thorax -15.5998 -0.404824 1.98245
lowerneck -13.8626 -1.40529 -1.01536
upperneck 32.4379 1.28215 -5.78873
head 13.2502 0.0700512 -1.80511
rclavicle 8.00108e-015 7.15625e-015
rhumerus -60.8864 13.939 -54.4997
rradius 29.7675
rwrist -8.44753
rhand -23.1603 -21.5509
rfingers 7.12502
rthumb 3.28828 -51.5053
lclavicle 8.00108e-015 7.15625e-015
lhumerus -49.0168 -1.16165 79.3504
lradius 50.9275
lwrist -7.59618
lhand -32.5203 29.3589
lfingers 7.12502
lthumb -5.7511 59.2609
rfemur -6.53825 5.21508 27.9531
rtibia 8.71431
rfoot 344.036 -13.3748
rtoes -1.55522
lfemur -6.46201 11.5329 -20.618
ltibia 71.2442
lfoot -27.7492 -12.3853
ltoes -39.7319
246
root 11.5708 15.7208 4.90546 -172.258 82.8606 -177.659
lowerback 11.0101 -0.99365 0.766427
upperback -8.40113 -0.892178 1.15022
thorax -15.6236 -0.340367 1.06172
lowerneck -13.7367 -1.18677 -1.02953
upperneck 31.6052 1.67331 -6.28651
head 12.8927 0.175283 -1.91947
rclavicle 1.03368e-014 -1.43125e-014
rhumerus -59.5828 14.5906 -55.2466
rradius 30.1928
rwrist -7.18259
rhand -23.7071 -22.2169
rfingers 7.12502
rthumb 2.76025 -52.1788
lclavicle 1.03368e-014 -1.43125e-014
lhumerus -50.0796 0.71846 78.0035
lradius 48.6129
lwrist -7.75352
lhand -32.5539 29.7298
lfingers 7.12502
lthumb -5.78356 59.6308
rfemur -5.9723 4.68074 31.0637
rtibia 10.8364
rfoot 340.853 -11.6443
rtoes -1.76401
lfemur -9.06661 12.2306 -18.38
ltibia 77.0272
lfoot -22.6778 -9.15357
ltoes -38.42
